name Walk3.mot
datacolumns 19
datarows 27
range 1.56000000 1.58600000
endheader

                time	   L_ground_force_vx	   L_ground_force_vy	   L_ground_force_vz	   L_ground_force_px	   L_ground_force_py	   L_ground_force_pz	   R_ground_force_vx	   R_ground_force_vy	   R_ground_force_vz	   R_ground_force_px	   R_ground_force_py	   R_ground_force_pz	   L_ground_torque_x	   L_ground_torque_y	   L_ground_torque_z	   R_ground_torque_x	   R_ground_torque_y	   R_ground_torque_z	
          1.56000000	          8.74744995	        623.78603432	         31.62037033	         -0.35839385	          0.00000000	         -0.04278700	         -0.02203933	          0.15137690	          0.00182207	          0.00007524	          0.00000000	          0.00006399	          0.00000000	         -2.36445014	          0.00000000	          0.00000000	         -0.00013910	          0.00000000	
          1.56100000	          8.89735147	        624.59976201	         31.73735703	         -0.35783744	          0.00000000	         -0.04282935	         -0.02395231	          0.16299446	          0.00191088	          0.00007915	          0.00000000	          0.00006729	          0.00000000	         -2.38179680	          0.00000000	          0.00000000	         -0.00014962	          0.00000000	
          1.56200000	          9.04573837	        625.43807502	         31.85700709	         -0.35727881	          0.00000000	         -0.04287288	         -0.02594412	          0.17501843	          0.00200004	          0.00008310	          0.00000000	          0.00007061	          0.00000000	         -2.39884575	          0.00000000	          0.00000000	         -0.00016049	          0.00000000	
          1.56300000	          9.19272620	        626.30142276	         31.97937820	         -0.35671809	          0.00000000	         -0.04291758	         -0.02801388	          0.18743692	          0.00208923	          0.00008708	          0.00000000	          0.00007395	          0.00000000	         -2.41557216	          0.00000000	          0.00000000	         -0.00017171	          0.00000000	
          1.56400000	          9.33845947	        627.19020788	         32.10451926	         -0.35615543	          0.00000000	         -0.04296347	         -0.03016027	          0.20023530	          0.00217807	          0.00009106	          0.00000000	          0.00007729	          0.00000000	         -2.43195131	          0.00000000	          0.00000000	         -0.00018327	          0.00000000	
          1.56500000	          9.48311273	        628.10478704	         32.23247064	         -0.35559097	          0.00000000	         -0.04301053	         -0.03238157	          0.21339601	          0.00226618	          0.00009504	          0.00000000	          0.00008063	          0.00000000	         -2.44795850	          0.00000000	          0.00000000	         -0.00019514	          0.00000000	
          1.56600000	          9.62689143	        629.04547196	         32.36326455	         -0.35502488	          0.00000000	         -0.04305877	         -0.03467554	          0.22689838	          0.00235312	          0.00009900	          0.00000000	          0.00008394	          0.00000000	         -2.46356905	          0.00000000	          0.00000000	         -0.00020731	          0.00000000	
          1.56700000	          9.77003246	        630.01253007	         32.49692536	         -0.35445732	          0.00000000	         -0.04310819	         -0.03703947	          0.24071839	          0.00243842	          0.00010291	          0.00000000	          0.00008721	          0.00000000	         -2.47875819	          0.00000000	          0.00000000	         -0.00021975	          0.00000000	
          1.56800000	          9.91280445	        631.00618458	         32.63346992	         -0.35388847	          0.00000000	         -0.04315878	         -0.03947010	          0.25482848	          0.00252157	          0.00010677	          0.00000000	          0.00009043	          0.00000000	         -2.49350102	          0.00000000	          0.00000000	         -0.00023244	          0.00000000	
          1.56900000	         10.05550773	        632.02661388	         32.77290788	         -0.35331852	          0.00000000	         -0.04321056	         -0.04196359	          0.26919733	          0.00260203	          0.00011054	          0.00000000	          0.00009358	          0.00000000	         -2.50777243	          0.00000000	          0.00000000	         -0.00024536	          0.00000000	
          1.57000000	         10.19847403	        633.07395041	         32.91524225	         -0.35274766	          0.00000000	         -0.04326350	         -0.04451548	          0.28378964	          0.00267923	          0.00011420	          0.00000000	          0.00009663	          0.00000000	         -2.52154713	          0.00000000	          0.00000000	         -0.00025845	          0.00000000	
          1.57100000	         10.34206564	        634.14827943	         33.06047001	         -0.35217608	          0.00000000	         -0.04331762	         -0.04712066	          0.29856593	          0.00275254	          0.00011774	          0.00000000	          0.00009956	          0.00000000	         -2.53479964	          0.00000000	          0.00000000	         -0.00027170	          0.00000000	
          1.57200000	         10.48667408	        635.24963805	         33.20858293	         -0.35160398	          0.00000000	         -0.04337291	         -0.04977332	          0.31348224	          0.00282129	          0.00012111	          0.00000000	          0.00010236	          0.00000000	         -2.54750430	          0.00000000	          0.00000000	         -0.00028506	          0.00000000	
          1.57300000	         10.63271835	        636.37801445	         33.35956831	         -0.35103157	          0.00000000	         -0.04342938	         -0.05246692	          0.32849001	          0.00288477	          0.00012430	          0.00000000	          0.00010499	          0.00000000	         -2.55963535	          0.00000000	          0.00000000	         -0.00029848	          0.00000000	
          1.57400000	         10.78064286	        637.53334713	         33.51340984	         -0.35045905	          0.00000000	         -0.04348703	         -0.05519415	          0.34353573	          0.00294225	          0.00012727	          0.00000000	          0.00010743	          0.00000000	         -2.57116696	          0.00000000	          0.00000000	         -0.00031191	          0.00000000	
          1.57500000	         10.93091506	        638.71552424	         33.67008818	         -0.34988664	          0.00000000	         -0.04354587	         -0.05794685	          0.35856081	          0.00299291	          0.00013000	          0.00000000	          0.00010966	          0.00000000	         -2.58207331	          0.00000000	          0.00000000	         -0.00032531	          0.00000000	
          1.57600000	         11.08402294	        639.92438312	         33.82958148	         -0.34931455	          0.00000000	         -0.04360588	         -0.06071603	          0.37350128	          0.00303592	          0.00013243	          0.00000000	          0.00011164	          0.00000000	         -2.59232860	          0.00000000	          0.00000000	         -0.00033861	          0.00000000	
          1.57700000	         11.24047243	        641.15971064	         33.99186571	         -0.34874299	          0.00000000	         -0.04366707	         -0.06349179	          0.38828756	          0.00307038	          0.00013455	          0.00000000	          0.00011334	          0.00000000	         -2.60190721	          0.00000000	          0.00000000	         -0.00035174	          0.00000000	
          1.57800000	         11.40078448	        642.42124442	         34.15691496	         -0.34817219	          0.00000000	         -0.04372944	         -0.06626326	          0.40284426	          0.00309537	          0.00013631	          0.00000000	          0.00011474	          0.00000000	         -2.61078374	          0.00000000	          0.00000000	         -0.00036464	          0.00000000	
          1.57900000	         11.56549225	        643.70867539	         34.32470190	         -0.34760236	          0.00000000	         -0.04379297	         -0.06901862	          0.41708993	          0.00310990	          0.00013767	          0.00000000	          0.00011579	          0.00000000	         -2.61893312	          0.00000000	          0.00000000	         -0.00037724	          0.00000000	
          1.58000000	         11.73513811	        645.02165148	         34.49519833	         -0.34703374	          0.00000000	         -0.04385766	         -0.07174498	          0.43093684	          0.00311294	          0.00013859	          0.00000000	          0.00011645	          0.00000000	         -2.62633075	          0.00000000	          0.00000000	         -0.00038944	          0.00000000	
          1.58100000	         11.91027093	        646.35978205	         34.66837566	         -0.34646653	          0.00000000	         -0.04392348	         -0.07442838	          0.44429075	          0.00310340	          0.00013902	          0.00000000	          0.00011670	          0.00000000	         -2.63295259	          0.00000000	          0.00000000	         -0.00040118	          0.00000000	
          1.58200000	         12.09144357	        647.72264236	         34.84420518	         -0.34590097	          0.00000000	         -0.04399044	         -0.07705376	          0.45705068	          0.00308016	          0.00013892	          0.00000000	          0.00011650	          0.00000000	         -2.63877533	          0.00000000	          0.00000000	         -0.00041234	          0.00000000	
          1.58300000	         12.27921060	        649.10977767	         35.02265796	         -0.34533728	          0.00000000	         -0.04405852	         -0.07960488	          0.46910876	          0.00304204	          0.00013823	          0.00000000	          0.00011579	          0.00000000	         -2.64377641	          0.00000000	          0.00000000	         -0.00042284	          0.00000000	
          1.58400000	         12.47412623	        650.52070665	         35.20370451	         -0.34477570	          0.00000000	         -0.04412769	         -0.08206429	          0.48034995	          0.00298781	          0.00013691	          0.00000000	          0.00011453	          0.00000000	         -2.64793405	          0.00000000	          0.00000000	         -0.00043258	          0.00000000	
          1.58500000	         12.67674223	        651.95492455	         35.38731418	         -0.34421645	          0.00000000	         -0.04419795	         -0.08441333	          0.49065194	          0.00291620	          0.00013490	          0.00000000	          0.00011269	          0.00000000	         -2.65122720	          0.00000000	          0.00000000	         -0.00044142	          0.00000000	
          1.58600000	         12.88760593	        653.41190668	         35.57345454	         -0.34365976	          0.00000000	         -0.04426928	         -0.08663204	          0.49988488	          0.00282590	          0.00013215	          0.00000000	          0.00011021	          0.00000000	         -2.65363550	          0.00000000	          0.00000000	         -0.00044927	          0.00000000	
